<?xml version="1.0" encoding="UTF-8"?>
<svg width="97" height="91" version="1.1" viewBox="0 0 647 607" xmlns="http://www.w3.org/2000/svg"><path d="m232 57-132 206 33 13 97-139 145 184 88-18 20 16 39-18-44-63-95 46z" fill="#006400"/><path d="m331 118 133-78s57-27 90 29c34 56-19 93-19 93l-132 77z" fill="#676767"/><path d="m480 64 42 70" fill="none" stroke="#888" stroke-linecap="round" stroke-width="9.3" style="paint-order:normal"/><text transform="scale(1 1)" x="322.76669" y="470.11823" fill="#606060" font-family="'EB Garamond SC'" font-size="313px" font-weight="400" letter-spacing="0" stroke-width="17" text-align="center" text-anchor="middle" word-spacing="0" style="font-variant-caps:normal;font-variant-east-asian:normal;font-variant-ligatures:normal;font-variant-numeric:normal;line-height:44.0773px;paint-order:stroke fill markers" xml:space="preserve"><tspan x="322.76669" y="470.11823" fill="#606060" font-family="'EB Garamond SC'" font-size="313px" font-weight="400" stroke-width="17" style="font-variant-caps:normal;font-variant-east-asian:normal;font-variant-ligatures:normal;font-variant-numeric:normal;paint-order:stroke fill markers">Peak</tspan></text><text transform="scale(1 1)" x="312.98062" y="596.30609" fill="#606060" font-family="'EB Garamond SC'" font-size="245px" font-weight="400" letter-spacing="0" stroke-width=".94px" text-align="center" text-anchor="middle" word-spacing="0" style="font-variant-caps:normal;font-variant-east-asian:normal;font-variant-ligatures:normal;font-variant-numeric:normal;line-height:34.4283px" xml:space="preserve"><tspan x="312.98062" y="596.30609" fill="#606060" font-family="'EB Garamond SC'" font-size="245px" font-weight="400" stroke-width=".94px" style="font-variant-caps:normal;font-variant-east-asian:normal;font-variant-ligatures:normal;font-variant-numeric:normal">Slab</tspan></text><path d="m393 249-80-132s-28-57 28-91c56-34 93 18 93 18l79 131z" fill="#a6a6a6" fill-rule="evenodd"/><g transform="translate(-48 3.6)" fill="none" stroke="#888" stroke-linecap="round" stroke-width="9.3"><path transform="translate(0 -62)" d="m384 156 70-42m-53 70 70-42" style="paint-order:normal"/><path transform="translate(0 -62)" d="m417 212 70-42" style="-inkscape-stroke:none;font-variation-settings:normal;paint-order:normal"/><path transform="translate(0 -62)" d="m434 239 70-42" style="paint-order:normal"/><path transform="translate(0 -62)" d="m451 267 70-42" style="-inkscape-stroke:none;font-variation-settings:normal;paint-order:normal"/></g></svg>
